<?xml version="1.0" encoding="utf-8"?>
<!-- Generator: Adobe Illustrator 21.0.2, SVG Export Plug-In . SVG Version: 6.00 Build 0)  -->
<svg version="1.1" xmlns="http://www.w3.org/2000/svg" xmlns:xlink="http://www.w3.org/1999/xlink" x="0px" y="0px"
	 viewBox="0 0 100 100" style="enable-background:new 0 0 100 100;" xml:space="preserve">
<symbol id="die_T">
	<rect x="5" y="5" rx="20" ry="20" width="90" height="90" style="fill:#fff;stroke:black;stroke-width:5;" />
	<path d="M44.3,30.2H27v-8.8h44.8v8.8H54.4V78H44.3V30.2z"/>
</symbol>
<symbol id="die_O">
	<rect x="5" y="5" rx="20" ry="20" width="90" height="90" style="fill:#fff;stroke:black;stroke-width:5;" />
	<path d="M19.2,49.5c0-4.5,0.8-8.6,2.3-12.3c1.5-3.7,3.6-6.8,6.3-9.3c2.7-2.6,5.9-4.5,9.6-5.9c3.7-1.4,7.7-2.1,12.1-2.1
		c4.4,0,8.5,0.7,12.2,2.1c3.7,1.4,7,3.4,9.7,5.9c2.7,2.6,4.8,5.7,6.4,9.3c1.5,3.7,2.3,7.7,2.3,12.3c0,4.4-0.8,8.5-2.3,12.1
		c-1.5,3.7-3.6,6.8-6.4,9.4c-2.7,2.6-5.9,4.7-9.7,6.2c-3.7,1.5-7.8,2.2-12.2,2.2c-4.4,0-8.4-0.7-12.1-2.2c-3.7-1.5-6.9-3.5-9.6-6.2
		c-2.7-2.6-4.8-5.8-6.3-9.4C19.9,58,19.2,53.9,19.2,49.5z M30.1,49.5c0,3,0.5,5.8,1.4,8.4c0.9,2.5,2.3,4.7,4,6.6
		c1.7,1.9,3.8,3.3,6.2,4.4c2.4,1,5,1.6,7.9,1.6s5.5-0.5,7.9-1.6c2.4-1,4.5-2.5,6.2-4.4c1.7-1.9,3.1-4.1,4-6.6
		c0.9-2.5,1.4-5.3,1.4-8.4c0-2.9-0.5-5.7-1.4-8.2c-0.9-2.5-2.3-4.7-4-6.6c-1.7-1.9-3.8-3.3-6.2-4.4c-2.4-1.1-5.1-1.6-8-1.6
		c-2.9,0-5.6,0.5-8,1.6c-2.4,1.1-4.4,2.5-6.1,4.4c-1.7,1.9-3,4.1-4,6.6C30.6,43.9,30.1,46.6,30.1,49.5z"/>
</symbol>
<symbol id="die_X">
	<rect x="5" y="5" rx="20" ry="20" width="90" height="90" style="fill:#fff;stroke:black;stroke-width:5;" />
	<path d="M43.6,47.8L26,21.4h12.2l11.7,19.4l11.5-19.4h11.6L55.7,48L76,78H63.3L49.4,55.8L36.1,78H24L43.6,47.8z"/>
</symbol>
</svg>
